# xmcd
#
# Track frame offsets:
#	150
#	14698
#	25673
#	66773
#	109166
#	149334
#	199702
#	221465
#	249207
#	277491
#	289056
#	312461
#	316651
#
# Disc length: 4525
#
# Revision: 1
# Processed by: cddbd v1.5.1PL0 Copyright (c) Steve Scherf et al.
# Submitted via: CDex 1.50
# Normalized: r0:DSETVAR1,TDELIM( - )
#
DISCID=c411ab0d
DTITLE=Various Artist - Respekt!
DYEAR=2004
DGENRE=Jazz
TTITLE0=B. Holiday - Strange Fruit
TTITLE1=J. Coltrane - Alabama
TTITLE2=C. Mingus - Original Faubus Fables
TTITLE3=J. Coltrane - A Love Supreme Pt.1 - Acknowledgement
TTITLE4=M. Roach - Mendacity
TTITLE5=A. Blakey - Free For All
TTITLE6=A. Shepp - Malcolm, Malcolm
TTITLE7=O. Coleman - Broken Shadows
TTITLE8=A . Shepp - Damn If I Know
TTITLE9=S. Rivers - Postlude
TTITLE10=S. Coleman Group - Motherland Pulse
TTITLE11=C. Taylor - T (Beautiful Young)
TTITLE12=W. Paker Violin Trio - Singing Spirits
EXTD=YEAR: 2004
EXTT0=
EXTT1=
EXTT2=
EXTT3=
EXTT4=
EXTT5=
EXTT6=
EXTT7=
EXTT8=
EXTT9=
EXTT10=
EXTT11=
EXTT12=
PLAYORDER=
